<svg width="50" height="52" viewBox="0 0 50 52" fill="none" xmlns="http://www.w3.org/2000/svg">
<path fill-rule="evenodd" clip-rule="evenodd" d="M50 26.1197C50 40.0525 38.8071 51.3473 25 51.3473C11.1929 51.3473 0 40.0525 0 26.1197C0 12.1869 11.1929 0.89209 25 0.89209C38.8071 0.89209 50 12.1869 50 26.1197ZM16.7411 23.8087C14.2368 24.9121 11.6636 26.0459 9.31068 27.3537C8.08205 28.2615 9.71498 28.9037 11.247 29.506C11.4905 29.6017 11.7315 29.6964 11.958 29.791C12.1466 29.8496 12.3382 29.9112 12.5325 29.9736C14.2364 30.5214 16.1361 31.1322 17.7903 30.2134C20.5076 28.6382 23.0719 26.8172 25.6343 24.9976C26.4737 24.4014 27.313 23.8054 28.1574 23.2182C28.197 23.1926 28.2416 23.1634 28.2904 23.1316C29.0097 22.661 30.6275 21.6028 30.0291 23.0609C28.6141 24.6225 27.0983 26.0048 25.5745 27.3947C24.5474 28.3314 23.5166 29.2716 22.5103 30.2722C21.634 30.9908 20.7239 32.4358 21.7052 33.4421C23.9655 35.0388 26.2611 36.5968 28.5554 38.154C29.302 38.6606 30.0485 39.1673 30.7935 39.6752C32.0562 40.6925 34.0297 39.8696 34.3073 38.2799C34.4307 37.5486 34.5547 36.8174 34.6786 36.0862C35.3636 32.0448 36.0489 28.002 36.6542 23.9475C36.7365 23.3114 36.8297 22.6755 36.923 22.0392C37.1492 20.4971 37.3756 18.953 37.4464 17.4026C37.2641 15.8553 35.4049 16.1956 34.3703 16.5435C29.0524 18.5855 23.7876 20.7788 18.5436 23.0108C17.9496 23.2763 17.3474 23.5416 16.7411 23.8087Z" fill="#FFE9CF"/>
</svg>
