<svg width="50" height="52" viewBox="0 0 50 52" fill="none" xmlns="http://www.w3.org/2000/svg">
<path fill-rule="evenodd" clip-rule="evenodd" d="M25 51.3473C11.1929 51.3473 0 40.0525 0 26.1197C0 12.1869 11.1929 0.89209 25 0.89209C38.8071 0.89209 50 12.1869 50 26.1197C50 40.0525 38.8071 51.3473 25 51.3473ZM25.8241 40.1552C34.0203 40.1518 40.6865 33.4234 40.6897 25.1542C40.6914 21.146 39.1465 17.3771 36.3398 14.5417C33.5331 11.7062 29.8006 10.1439 25.8239 10.1422C17.63 10.1422 10.9612 16.8714 10.9579 25.1423C10.9569 27.7863 11.6414 30.3668 12.9423 32.6419L10.8333 40.4153L18.7139 38.3293C20.8852 39.5244 23.3299 40.1543 25.8179 40.1552H25.8241Z" fill="#FFE9CF"/>
<path fill-rule="evenodd" clip-rule="evenodd" d="M19.079 35.6134L14.4026 36.8514L15.6508 32.2503L15.3571 31.7785C14.1202 29.7934 13.467 27.4991 13.4679 25.1432C13.4706 18.2686 19.0134 12.6758 25.8289 12.6758C29.1291 12.6769 32.2314 13.9755 34.5643 16.3323C36.8971 18.6891 38.181 21.8216 38.1798 25.1532C38.177 32.0283 32.6343 37.6217 25.824 37.6217H25.819C23.6019 37.6207 21.4273 37.0197 19.5302 35.8837L19.079 35.6134ZM33.3133 28.7213C33.2205 28.565 32.9729 28.4712 32.6014 28.2835C32.23 28.0958 30.4038 27.1892 30.0633 27.064C29.7229 26.9389 29.4751 26.8765 29.2276 27.2515C28.98 27.6268 28.2681 28.4712 28.0514 28.7213C27.8348 28.9714 27.618 29.0028 27.2468 28.8151C26.8753 28.6275 25.6784 28.2317 24.2597 26.9547C23.1554 25.9607 22.4099 24.7334 22.1932 24.3582C21.9765 23.9829 22.1702 23.78 22.3561 23.5931C22.5232 23.4252 22.7276 23.1552 22.9133 22.9365C23.099 22.7176 23.1609 22.5612 23.2847 22.3113C23.4085 22.061 23.3466 21.8421 23.2537 21.6545C23.1609 21.4669 22.418 19.6219 22.1085 18.8714C21.807 18.1405 21.5008 18.2395 21.2728 18.228C21.0563 18.217 20.8085 18.2147 20.5609 18.2147C20.3133 18.2147 19.9108 18.3085 19.5704 18.6837C19.2299 19.059 18.2703 19.9658 18.2703 21.8107C18.2703 23.6557 19.6013 25.438 19.7871 25.6882C19.9728 25.9383 22.4062 29.7243 26.1324 31.3479C27.0186 31.7341 27.7104 31.9647 28.25 32.1374C29.1398 32.4228 29.9496 32.3825 30.5895 32.2859C31.3032 32.1784 32.7871 31.3793 33.0968 30.5038C33.4061 29.6281 33.4061 28.8776 33.3133 28.7213Z" fill="#FFE9CF"/>
</svg>
