<svg width="50" height="39" viewBox="0 0 50 39" fill="none" xmlns="http://www.w3.org/2000/svg">
<path d="M49.6668 32.2709C49.6668 33.3696 49.3605 34.3882 48.8699 35.2844L33.1881 17.5789L48.6999 3.88392C49.3033 4.85022 49.6668 5.98531 49.6668 7.21192V32.2709ZM24.8334 20.7937L46.4176 1.73614C45.5319 1.24684 44.5345 0.946777 43.4586 0.946777H6.20831C5.13106 0.946777 4.13335 1.24684 3.2512 1.73614L24.8334 20.7937ZM30.851 19.6408L25.8548 24.0549C25.5626 24.3118 25.1987 24.4401 24.8334 24.4401C24.468 24.4401 24.1041 24.3118 23.8119 24.0549L18.8146 19.6406L2.93439 37.5723C3.88625 38.1749 5.00178 38.5359 6.20821 38.5359H43.4586C44.6648 38.5359 45.7808 38.1749 46.7324 37.5723L30.851 19.6408ZM0.967109 3.88381C0.363792 4.85012 0 5.98521 0 7.21192V32.271C0 33.3698 0.304832 34.3883 0.797291 35.2845L16.4773 17.5759L0.967109 3.88381Z" fill="#FFE9CF"/>
</svg>
