<svg width="33" height="33" viewBox="0 0 33 33" fill="none" xmlns="http://www.w3.org/2000/svg">
<path d="M28.0812 22H11.2421C10.9627 22.0005 10.6915 21.9059 10.4729 21.7318C10.2544 21.5577 10.1015 21.3144 10.0395 21.042L7.20414 8.68918C7.16267 8.50873 7.16242 8.32126 7.20342 8.1407C7.24442 7.96015 7.3256 7.79116 7.44094 7.64632C7.55628 7.50148 7.70279 7.38452 7.86958 7.30413C8.03637 7.22374 8.21914 7.182 8.40429 7.18202H30.919C31.1044 7.18163 31.2874 7.2231 31.4545 7.30333C31.6216 7.38355 31.7684 7.50047 31.884 7.64536C31.9996 7.79025 32.0811 7.95936 32.1222 8.1401C32.1633 8.32084 32.1631 8.50853 32.1216 8.68918L29.2813 21.042C29.2194 21.314 29.0669 21.557 28.8489 21.731C28.6308 21.9051 28.3601 21.9999 28.0812 22ZM12.2223 19.5373H27.101L29.3724 9.64717H9.95004L12.2223 19.5373Z" fill="#FFE9CF"/>
<path d="M13.6515 33C12.7183 33 11.806 32.7233 11.03 32.2048C10.2541 31.6863 9.64929 30.9494 9.29216 30.0872C8.93503 29.225 8.84159 28.2763 9.02365 27.361C9.20572 26.4457 9.65511 25.6049 10.315 24.945C10.9749 24.2851 11.8157 23.8357 12.731 23.6537C13.6463 23.4716 14.595 23.565 15.4572 23.9222C16.3194 24.2793 17.0563 24.8841 17.5748 25.66C18.0933 26.436 18.37 27.3483 18.37 28.2815C18.3687 29.5325 17.8712 30.7319 16.9865 31.6165C16.1019 32.5012 14.9025 32.9987 13.6515 33ZM13.6515 26.0265C13.2053 26.0265 12.7691 26.1588 12.3981 26.4067C12.0272 26.6546 11.738 27.007 11.5673 27.4192C11.3966 27.8315 11.352 28.2851 11.4391 28.7227C11.5262 29.1603 11.7411 29.5623 12.0567 29.8777C12.3722 30.1932 12.7743 30.4079 13.2119 30.4949C13.6495 30.5818 14.1031 30.537 14.5153 30.3662C14.9275 30.1953 15.2798 29.9061 15.5275 29.535C15.7753 29.1639 15.9075 28.7277 15.9073 28.2815C15.9067 27.6835 15.6688 27.1102 15.2458 26.6874C14.8229 26.2646 14.2495 26.0269 13.6515 26.0265Z" fill="#FFE9CF"/>
<path d="M25.6711 33C24.7379 33 23.8256 32.7233 23.0497 32.2048C22.2737 31.6863 21.6689 30.9494 21.3118 30.0872C20.9547 29.225 20.8612 28.2763 21.0433 27.361C21.2254 26.4457 21.6748 25.6049 22.3347 24.945C22.9946 24.2851 23.8353 23.8357 24.7506 23.6537C25.6659 23.4716 26.6146 23.565 27.4768 23.9222C28.339 24.2793 29.076 24.8841 29.5944 25.66C30.1129 26.436 30.3897 27.3483 30.3897 28.2815C30.3883 29.5325 29.8908 30.7319 29.0062 31.6165C28.1216 32.5012 26.9222 32.9987 25.6711 33ZM25.6711 26.0265C25.225 26.0265 24.7888 26.1588 24.4178 26.4067C24.0468 26.6546 23.7577 27.007 23.587 27.4192C23.4162 27.8315 23.3716 28.2851 23.4587 28.7227C23.5458 29.1603 23.7608 29.5623 24.0763 29.8777C24.3919 30.1932 24.7939 30.4079 25.2316 30.4949C25.6692 30.5818 26.1228 30.537 26.535 30.3662C26.9472 30.1953 27.2994 29.9061 27.5472 29.535C27.795 29.1639 27.9271 28.7277 27.927 28.2815C27.9263 27.6835 27.6884 27.1102 27.2655 26.6874C26.8426 26.2646 26.2692 26.0269 25.6711 26.0265Z" fill="#FFE9CF"/>
<path d="M8.40433 9.6447C8.14586 9.64468 7.89395 9.56332 7.6843 9.41216C7.47464 9.26099 7.31787 9.04769 7.23619 8.80246L5.12567 2.46269H1.23134C0.90477 2.46269 0.591574 2.33296 0.360652 2.10203C0.12973 1.87111 0 1.55792 0 1.23134C0 0.904771 0.12973 0.591574 0.360652 0.360652C0.591574 0.12973 0.90477 0 1.23134 0H6.01716C6.27563 2.39146e-05 6.52754 0.0813813 6.7372 0.232545C6.94685 0.383709 7.10362 0.597014 7.1853 0.842239L9.57657 8.02425C9.63821 8.20933 9.655 8.40641 9.62555 8.59925C9.5961 8.79208 9.52126 8.97517 9.40718 9.13341C9.29311 9.29165 9.14307 9.42053 8.96943 9.50943C8.79578 9.59832 8.60351 9.64468 8.40843 9.6447H8.40433Z" fill="#FFE9CF"/>
</svg>
