<svg width="29" height="33" viewBox="0 0 29 33" fill="none" xmlns="http://www.w3.org/2000/svg">
<path d="M14.4748 17.018C6.7649 17.0325 0.386944 23.1366 0.00176876 30.8506C-0.00848396 31.0696 0.0259165 31.2883 0.102877 31.4934C0.179837 31.6986 0.297746 31.886 0.449429 32.0442C0.601112 32.2024 0.783396 32.328 0.985186 32.4135C1.18698 32.499 1.40405 32.5425 1.6232 32.5415H27.3894C27.6075 32.5408 27.8232 32.496 28.0235 32.4098C28.2238 32.3235 28.4046 32.1976 28.5549 32.0396C28.7053 31.8816 28.822 31.6948 28.8982 31.4905C28.9744 31.2861 29.0084 31.0685 28.9982 30.8506C28.6126 23.1269 22.2196 17.0189 14.5 17.018H14.4748Z" fill="#FFE9CF"/>
<path d="M14.5004 0C10.4135 0 7.08157 3.34759 7.08154 7.43906C7.08153 11.5305 10.4135 14.8897 14.5004 14.8897C18.5874 14.8897 21.9308 11.5305 21.9308 7.43906C21.9308 3.34759 18.5873 0 14.5004 0Z" fill="#FFE9CF"/>
</svg>
